# xmcd CD database generated by RipIT
#
# Track frame offsets:
# 182
# 32945
# 61100
# 83792
# 107110
# 139437
# 172287
# 208797
# 242020
#
# Disc length: 3592 seconds
#
# Revision: 7
# Processed by: cddbd v1.5.2PL0 Copyright (c) Steve Scherf et al.
# Submitted via: RipIT 3.6.0 www.suwald.com/ripit/ripit.html on 2010-06-19 at 13:47
#
DISCID=840e0609
DTITLE=Bela Bartok - String Quartets (Quatuor Vegh) Disc 3
DYEAR=1972
DGENRE=Classique
TTITLE0=String Quartet N°5 (1934), Sz.102 - I. Allegro
TTITLE1=String Quartet N°5 (1934), Sz.102 - II. Adagio molto
TTITLE2=String Quartet N°5 (1934), Sz.102 - III. Scherzo
TTITLE3=String Quartet N°5 (1934), Sz.102 - IV. Andante
TTITLE4=String Quartet N°5 (1934), Sz.102 - V. Finale
TTITLE5=String Quartet N°6 (1939), Sz.114 - I. Mesto - Piú mosso, pesante
TTITLE6=String Quartet N°6 (1939), Sz.114 - II. Mesto - Marcia
TTITLE7=String Quartet N°6 (1939), Sz.114 - III. Mesto - Burletta
TTITLE8=String Quartet N°6 (1939), Sz.114 - IV. Mesto
EXTD=YEAR: 1972\n
EXTT0=
EXTT1=
EXTT2=
EXTT3=
EXTT4=
EXTT5=
EXTT6=
EXTT7=
EXTT8=
PLAYORDER=
